<svg preserveAspectRatio="none" width="100%" height="100%" overflow="visible" style="display: block;" viewBox="0 0 642.66 216" fill="none" xmlns="http://www.w3.org/2000/svg">
<g id="Group 1050">
<path id="Star 5" d="M21.8624 24.9766C22.1965 23.3883 24.4639 23.3883 24.7981 24.9766L28.6157 43.121C28.7152 43.594 29.0366 43.9901 29.4791 44.1849L43.5426 50.3772C44.7366 50.9029 44.7366 52.5971 43.5426 53.1228L29.4791 59.3151C29.0366 59.5099 28.7152 59.906 28.6157 60.379L24.7981 78.5234C24.4639 80.1117 22.1965 80.1117 21.8624 78.5234L18.0448 60.379C17.9453 59.906 17.6238 59.5099 17.1814 59.3151L3.11788 53.1228C1.92382 52.5971 1.92382 50.9029 3.11788 50.3772L17.1814 44.1849C17.6238 43.9901 17.9453 43.594 18.0448 43.121L21.8624 24.9766Z" fill="var(--fill-0, #EEE7BB)"/>
<ellipse id="Ellipse 30" cx="23.3301" cy="97.5" rx="5.83256" ry="6" fill="var(--fill-0, #EEE7BB)"/>
<g id="Group 1092">
<path id="Star 4" d="M617.862 137.477C618.197 135.888 620.464 135.888 620.798 137.477L624.616 155.621C624.715 156.094 625.037 156.49 625.479 156.685L639.543 162.877C640.737 163.403 640.737 165.097 639.543 165.623L625.479 171.815C625.037 172.01 624.715 172.406 624.616 172.879L620.798 191.023C620.464 192.612 618.197 192.612 617.862 191.023L614.045 172.879C613.945 172.406 613.624 172.01 613.181 171.815L599.118 165.623C597.924 165.097 597.924 163.403 599.118 162.877L613.181 156.685C613.624 156.49 613.945 156.094 614.045 155.621L617.862 137.477Z" fill="var(--fill-0, #EEE7BB)"/>
<ellipse id="Ellipse 28" cx="619.33" cy="210" rx="5.83256" ry="6" fill="var(--fill-0, #EEE7BB)"/>
<ellipse id="Ellipse 29" cx="619.33" cy="118.5" rx="5.83256" ry="6" fill="var(--fill-0, #EEE7BB)"/>
</g>
<ellipse id="Ellipse 31" cx="23.3301" cy="6" rx="5.83256" ry="6" fill="var(--fill-0, #EEE7BB)"/>
</g>
</svg>
