<svg preserveAspectRatio="none" width="100%" height="100%" overflow="visible" style="display: block;" viewBox="0 0 627 178.5" fill="none" xmlns="http://www.w3.org/2000/svg">
<g id="Group 1047">
<path id="Star 4" d="M602.202 24.9766C602.536 23.3883 604.803 23.3883 605.137 24.9766L608.955 43.121C609.055 43.594 609.376 43.9901 609.818 44.1849L623.882 50.3772C625.076 50.9029 625.076 52.5971 623.882 53.1228L609.818 59.3151C609.376 59.5099 609.055 59.906 608.955 60.379L605.137 78.5234C604.803 80.1117 602.536 80.1117 602.202 78.5234L598.384 60.379C598.285 59.906 597.963 59.5099 597.521 59.3151L583.457 53.1228C582.263 52.5971 582.263 50.9029 583.457 50.3772L597.521 44.1849C597.963 43.9901 598.285 43.594 598.384 43.121L602.202 24.9766Z" fill="var(--fill-0, #EEE7BB)"/>
<path id="Star 5" d="M21.8624 99.9766C22.1965 98.3883 24.4639 98.3883 24.7981 99.9766L28.6157 118.121C28.7152 118.594 29.0366 118.99 29.4791 119.185L43.5426 125.377C44.7366 125.903 44.7366 127.597 43.5426 128.123L29.4791 134.315C29.0366 134.51 28.7152 134.906 28.6157 135.379L24.7981 153.523C24.4639 155.112 22.1965 155.112 21.8624 153.523L18.0448 135.379C17.9453 134.906 17.6238 134.51 17.1814 134.315L3.11788 128.123C1.92382 127.597 1.92382 125.903 3.11788 125.377L17.1814 119.185C17.6238 118.99 17.9453 118.594 18.0448 118.121L21.8624 99.9766Z" fill="var(--fill-0, #EEE7BB)"/>
<ellipse id="Ellipse 28" cx="603.67" cy="97.5" rx="5.83256" ry="6" fill="var(--fill-0, #EEE7BB)"/>
<ellipse id="Ellipse 30" cx="23.3301" cy="172.5" rx="5.83256" ry="6" fill="var(--fill-0, #EEE7BB)"/>
<ellipse id="Ellipse 29" cx="603.67" cy="6" rx="5.83256" ry="6" fill="var(--fill-0, #EEE7BB)"/>
<ellipse id="Ellipse 31" cx="23.3301" cy="81" rx="5.83256" ry="6" fill="var(--fill-0, #EEE7BB)"/>
</g>
</svg>
