<svg preserveAspectRatio="none" width="100%" height="100%" overflow="visible" style="display: block;" viewBox="0 0 46.6605 103.5" fill="none" xmlns="http://www.w3.org/2000/svg">
<g id="sparkle">
<path id="Star 4" d="M21.8624 24.9766C22.1965 23.3883 24.4639 23.3883 24.7981 24.9766L28.6157 43.121C28.7152 43.594 29.0366 43.9901 29.4791 44.1849L43.5426 50.3772C44.7366 50.9029 44.7366 52.5971 43.5426 53.1228L29.4791 59.3151C29.0366 59.5099 28.7152 59.906 28.6157 60.379L24.7981 78.5234C24.4639 80.1117 22.1965 80.1117 21.8624 78.5234L18.0448 60.379C17.9453 59.906 17.6238 59.5099 17.1814 59.3151L3.11788 53.1228C1.92382 52.5971 1.92382 50.9029 3.11788 50.3772L17.1814 44.1849C17.6238 43.9901 17.9453 43.594 18.0448 43.121L21.8624 24.9766Z" fill="var(--fill-0, #EEE7BB)"/>
<ellipse id="Ellipse 28" cx="23.3301" cy="97.5" rx="5.83256" ry="6" fill="var(--fill-0, #EEE7BB)"/>
<ellipse id="Ellipse 29" cx="23.3301" cy="6" rx="5.83256" ry="6" fill="var(--fill-0, #EEE7BB)"/>
</g>
</svg>
